{"title":"Sexy.Selena.Rose.XXX.BDRip.XviD-STARLETS","uid":7862257,"size":1466775552,"categoryP":"porn","categoryS":"movies","magnet":"?xt=urn:btih:ee190abe52f3e11e6c1a535d6761072e2049554f&amp;dn=Sexy.Selena.Rose.XXX.BDRip.XviD-STARLETS&amp;tr=udp%3A%2F%2Ftracker.openbittorrent.com%3A80&amp;tr=udp%3A%2F%2Fopen.demonii.com%3A1337&amp;tr=udp%3A%2F%2Ftracker.coppersurfer.tk%3A6969&amp;tr=udp%3A%2F%2Fexodus.desync.com%3A6969","seeders":1,"leechers":3,"uploader":"R0thschild","files":3,"time":1353962648,"description":"Gallery: \n &lt;a href=&quot;\nhttp://imagedomino.com/?g=599948&quot; rel=&quot;nofollow&quot; target=&quot;_NEW&quot;&gt;\nhttp://imagedomino.com/?g=599948&lt;/a&gt;\n\nStudio\nDigital Playground\nStarring\nErik Everhard, Manuel Ferrara, Toni Ribas, Juelz Ventura, Nacho Vidal, Samantha Saint, Selena Rose, Cassandra Nix\nGenre\nFeature\n\nSexy Selena Rose spices up a wild ride of nasty perversions. She gets pounded by her explosive boss Manuel Ferrara, and\n\nbefore sliding down a lusty, long stripper pole, she gets banged hard by her hung boyfriend, Nacho Vidal. Hot stud Tony Ribas\n\ngives Juelz Ventura the fat sausage injection to handle her hungry horniness. Nacho hits the tight wet holes of hottie\n\nCassandra Nix after a seductive massage and sultry Samantha Saint sells lingerie to thick tooled Erik Everhard for a raw and\n\norgasmic sinful adventure.\n\nDuration                         : 1h 2mn\nBit rate                         : 1 409 Kbps\nWidth                            : 624 pixels\nHeight                           : 352 pixels\nDisplay aspect ratio             : 16:9\nFrame rate                       : 23.976 fps\nColor space                      : YUV\nChroma subsampling               : 4:2:0\nBit depth                        : 8 bits\nScan type                        : Progressive\nCompression mode                 : Lossy\nBits/(Pixel*Frame)               : 0.268\nStream size                      : 635 MiB (91%)\n\nDuration                         : 58mn 29s\nBit rate                         : 1 539 Kbps\nWidth                            : 624 pixels\nHeight                           : 352 pixels\nDisplay aspect ratio             : 16:9\nFrame rate                       : 23.976 fps\nColor space                      : YUV\nChroma subsampling               : 4:2:0\nBit depth                        : 8 bits\nScan type                        : Progressive\nCompression mode                 : Lossy\nBits/(Pixel*Frame)               : 0.292\nStream size                      : 644 MiB (92%)","torrent":{"xt":"urn:btih:ee190abe52f3e11e6c1a535d6761072e2049554f","amp;dn":"Sexy.Selena.Rose.XXX.BDRip.XviD-STARLETS","amp;tr":["udp%3A%2F%2Ftracker.openbittorrent.com%3A80","udp%3A%2F%2Fopen.demonii.com%3A1337","udp%3A%2F%2Ftracker.coppersurfer.tk%3A6969","udp%3A%2F%2Fexodus.desync.com%3A6969"],"infoHash":"ee190abe52f3e11e6c1a535d6761072e2049554f","infoHashBuffer":{"type":"Buffer","data":[238,25,10,190,82,243,225,30,108,26,83,93,103,97,7,46,32,73,85,79]},"announce":[],"urlList":[]}}